<svg width="140" height="44" version="1.1" viewBox="0 0 140 44" xmlns="http://www.w3.org/2000/svg">
 <g transform="matrix(.87557 0 0 1.1421 0 -2)" aria-label="Decontaminator">
  <path d="m14.01 8.4271c0.16742 0.014318 0.33484 0.028647 0.50227 0.042988-0.06427 0.54775-0.0909 0.9275-0.07995 1.1391 0.01429 0.27608 0.19023 0.45606 0.52779 0.54002 0.34641 0.0743 0.99482 0.08673 1.946 0.03785 0.64663-0.03323 1.535-0.12485 2.6668-0.27436 1.1728-0.16079 2.3459-0.32092 3.5195-0.4803 1.2244-0.16189 2.3455-0.26709 3.3629-0.31592 2.8858-0.1385 5.1204 0.34076 6.6987 1.4325 1.5875 1.0824 2.4265 2.7068 2.5214 4.8713 0.07023 1.6027-0.23653 3.254-0.91748 4.9545-0.67173 1.7001-1.6137 3.1958-2.8251 4.4877-1.9755 2.1021-4.1799 3.2114-6.622 3.3295-1.5883 0.0768-2.9238-0.22181-4.0075-0.89699-1.0749-0.68481-2.2826-1.9807-3.625-3.8872-0.36786-0.5211-0.73588-1.0421-1.104-1.5631-0.04496-0.0669-0.08992-0.1338-0.13488-0.2007-0.09038 0.03693-0.18076 0.07386-0.27114 0.11079-2.5522 0.98008-4.4606 1.5045-5.7308 1.5714-1.3432 0.07071-2.4437-0.23986-3.302-0.93209-0.85826-0.6922-1.3197-1.636-1.3839-2.8316-0.09182-1.7107 0.5912-3.0897 2.0507-4.1364 0.98736-0.717 2.0252-1.1044 3.1129-1.1619 1.097-0.05799 2.0633 0.29729 2.8981 1.0657 0.84304 0.75827 2.0946 2.4152 3.7479 4.9695 0.05994 0.08922 0.11988 0.17844 0.17982 0.26767 0.16704-0.0731 0.33409-0.14619 0.50115-0.21927 3.3409-1.4614 6.5814-3.0011 9.7221-4.6171 1.029-0.52864 2.0587-1.0567 3.0892-1.584 0.14014-0.07105 0.2803-0.14209 0.42048-0.21312 0.04284 0.12724 0.06678 0.24611 0.07184 0.35663 0.02783 0.60823-0.25266 1.8615-0.83922 3.7624-0.53824 1.741-0.79898 2.7738-0.78398 3.0957 0.01288 0.27627 0.19418 0.40623 0.54387 0.39003 0.17486-0.0081 0.42096-0.07024 0.73842-0.18636 0.05825 0.16344 0.11649 0.32688 0.17472 0.49032-0.10412 0.0417-0.20824 0.0834-0.31234 0.12511-0.74178 0.31105-1.6244 0.65657-2.6482 1.0371-3.71e-4 1.48e-4 -0.35244 0.14111-0.35281 0.14126 7e-3 -0.24028 0.03642-0.49546 0.08817-0.76554 0.02938-0.15828 0.05877-0.31656 0.08817-0.47483 0.10342-0.5395 0.38614-1.5878 0.84863-3.1408 0.4223-1.4321 0.62887-2.2579 0.61855-2.4792-0.01631-0.34993-0.16283-0.51846-0.43961-0.5055-0.16604 0.0078-0.45237 0.11348-0.85875 0.31723-0.32972 0.16322-0.65938 0.3265-0.98896 0.48985-1.016 0.50056-2.0313 1.0017-3.046 1.5034-2.1656 1.0657-4.172 1.9915-6.0248 2.7778-0.104 0.04219-0.20799 0.08438-0.31198 0.12658 1.4349 2.2617 2.7785 3.8693 4.0328 4.8224 1.2539 0.94384 2.6147 1.3802 4.0841 1.3096 1.3133-0.06311 2.5634-0.47752 3.752-1.2435 1.1977-0.76636 2.1598-1.7747 2.8863-3.0258 1.239-2.1417 1.8132-4.2987 1.7167-6.4724-0.08427-1.8973-0.81813-3.3275-2.2049-4.2891-1.3868-0.97055-3.3254-1.3981-5.8117-1.2788-0.88723 0.04256-1.9474 0.14928-3.1799 0.32067-1.5769 0.22988-3.1531 0.46109-4.7286 0.69345-0.80863 0.11493-1.6466 0.19475-2.5141 0.23951-1.052 0.05428-1.9489-0.02816-2.6912-0.24768 0.01851-0.08863 0.03703-0.17725 0.05555-0.26588 0.11254-0.50416 0.20836-0.97513 0.28743-1.4129 0.08058-0.49787 0.16119-0.99574 0.24185-1.4936 0.01465-0.074583 0.0293-0.14917 0.04395-0.22375zm2.116 12.776c-0.11485-0.16942-0.22972-0.33884-0.34461-0.50824-1.4679-2.1571-2.6146-3.5787-3.4355-4.2642-0.8213-0.68582-1.7621-1.0006-2.8218-0.94431-0.89381 0.047486-1.6501 0.42004-2.2687 1.1173-0.61909 0.6881-0.90453 1.4783-0.85674 2.3705 0.059121 1.1038 0.52214 1.9921 1.3887 2.6656 0.87525 0.66374 1.9521 0.96184 3.2311 0.89463 1.4724-0.07738 3.1741-0.52135 5.1076-1.3312z"/>
  <path d="m42.324 21.383c0.13921 0.25273 0.21286 0.48045 0.22103 0.68311 0.03564 0.88454-0.53492 1.9266-1.7084 3.1286-1.7114 1.7594-3.1869 2.6671-4.4345 2.7216-1.0729 0.04684-1.637-0.54148-1.6916-1.7665-0.06151-1.3814 0.29161-2.8509 1.0621-4.4073 0.77969-1.5569 1.8077-2.8566 3.0842-3.8979 1.5534-1.2652 2.96-1.9224 4.215-1.9724 0.72914-0.02905 1.1041 0.224 1.125 0.75826 0.01373 0.3501-0.14494 0.78068-0.47556 1.292-0.33097 0.5021-0.75102 0.96169-1.26 1.379-0.47369 0.37895-1.0817 0.73579-1.824 1.071-0.73309 0.33482-1.3017 0.51099-1.7067 0.5281-0.43253 0.01828-0.74182-0.20844-0.92802-0.68034 0.38906 0.03875 0.6986 0.05332 0.92877 0.04359 0.92062-0.03889 1.7565-0.33652 2.5087-0.89321 0.76102-0.56626 1.1297-1.1576 1.1049-1.7749-0.01777-0.44215-0.31252-0.65186-0.88437-0.62859-1.0237 0.04165-2.0449 0.71154-3.0605 2.0096-0.71796 0.91633-1.2949 1.9747-1.7313 3.1748-0.43634 1.2001-0.63374 2.2609-0.59346 3.1819 0.0415 0.94875 0.457 1.4057 1.246 1.3717 0.86256-0.03716 1.7367-0.5495 2.6244-1.537 0.89648-0.99698 1.6226-2.2586 2.1782-3.785v-2e-6z"/>
  <path d="m52.652 15.491c-0.60993 1.2336-1.2182 2.4675-1.8249 3.7019-0.16115 0.0057-0.3223 0.01134-0.48346 0.01705-2.4e-5 5.7e-5 0.10223-0.23891 0.1022-0.23885 0.29765-0.71169 0.44209-1.2009 0.43273-1.4681-0.01161-0.33162-0.3678-0.48538-1.0687-0.46036-1.079 0.03853-1.994 0.52897-2.7429 1.4704-0.71386 0.89404-1.3141 1.9549-1.8008 3.1825-0.47782 1.2178-0.6999 2.2371-0.6678 3.0569 0.03968 1.0135 0.52291 1.5017 1.4489 1.4662 0.78868-0.03025 1.5871-0.40169 2.3969-1.1142 0.80977-0.7125 1.4797-1.6361 2.01-2.7711-2.62e-4 5.54e-4 0.33436-0.70423 0.33409-0.70368 0.01708-0.03747 0.05572-0.1173 0.11587-0.23931 0.10729 0.1715 0.16413 0.3494 0.17057 0.53367 0.02773 0.79259-0.5268 1.78-1.66 2.965-1.6735 1.7397-3.2207 2.6381-4.6505 2.6941-1.2185 0.04772-1.8562-0.61818-1.9118-2.0002-0.04777-1.1882 0.29992-2.4851 1.0458-3.8893 0.74592-1.4043 1.7614-2.6803 3.0475-3.8265 1.724-1.5317 3.4389-2.3265 5.1375-2.3845 0.11073-0.0038 0.30039-1e-3 0.56868 0.0084z"/>
  <path d="m61.181 16.654c-0.49004-0.03263-0.89663-0.04424-1.2194-0.03506-2.4263 0.06899-4.2567 1.059-5.4846 2.962-0.48227 0.75364-0.88186 1.6155-1.199 2.5854-0.31738 0.96065-0.46468 1.7637-0.44286 2.4086 0.01528 0.45147 0.15632 0.82025 0.42288 1.1064 0.27542 0.27667 0.6146 0.40828 1.0178 0.39498 0.95293-0.03145 1.981-0.83463 3.0901-2.4088 1.1092-1.5743 1.6479-3.0004 1.6104-4.2813-0.0084-0.28564-0.09361-0.52291-0.25586-0.7118-0.15332-0.19837-0.33595-0.29441-0.54782-0.28808-0.73692 0.02201-1.4195 0.7808-2.0446 2.2762-0.05177-0.18283-0.07985-0.34335-0.08419-0.48156-0.01797-0.57118 0.31738-1.1815 1.0075-1.8298 0.69011-0.64833 1.354-0.9817 1.99-1.0003 0.42406-0.01237 0.78866 0.15241 1.0934 0.49418 0.30454 0.33258 0.46358 0.7477 0.4775 1.2453 0.04667 1.6678-0.96707 3.4654-3.0284 5.4006-1.7664 1.6772-3.2442 2.5375-4.4442 2.5781-0.52198 0.01765-0.96342-0.15624-1.3247-0.52191-0.35208-0.36599-0.53831-0.83452-0.55826-1.4058-0.04409-1.2621 0.34551-2.5953 1.1724-3.9978 0.83573-1.4121 1.9565-2.6395 3.3632-3.6801 0.77562-0.56866 1.6244-1.0421 2.546-1.4199 0.93082-0.37803 1.7246-0.57579 2.38-0.59401 0.40624-0.01129 0.61422 0.16291 0.62404 0.52223 0.0038 0.13823-0.05004 0.36558-0.16133 0.68217l-1e-6 -2e-6z"/>
  <path d="m69.938 24.644c0.07577 0.12288 0.15152 0.24577 0.22724 0.36867-1.0824 0.81472-2.3687 1.3956-3.8608 1.7445 0.15603-1.5224 0.9892-3.8568 2.5135-6.9844 0.28676-0.57762 0.57397-1.1551 0.86163-1.7325 0.29193-0.59598 0.43653-0.97658 0.43321-1.1425-5e-3 -0.24876-0.10889-0.37114-0.3118-0.36703-0.28573 0.0058-0.82372 0.33938-1.6113 1.0017-0.77846 0.6622-1.5349 1.4262-2.269 2.2918-1.5222 1.788-2.776 3.9227-3.7626 6.4023-0.42732 0.11299-1.0302 0.35091-1.8073 0.71426 0.79268-1.7564 1.5871-3.7238 2.385-5.9025 0.80726-2.1893 1.2087-3.4784 1.1986-3.8758-0.0084-0.33169-0.14628-0.4942-0.41376-0.48735-0.13827 0.0035-0.43637 0.08034-0.89372 0.23068-0.03663 0.01019-0.08699 0.02535-0.15105 0.04548-1.3e-5 -6.4e-5 -0.09471-0.44001-0.09472-0.44008 1.2816-0.40282 2.4385-0.8464 3.471-1.3318 0.05936-0.02906 0.11873-0.05812 0.1781-0.08717 0.02128 0.11935 0.03246 0.20206 0.03354 0.24813 0.0193 0.82173-0.54517 2.5784-1.6832 5.2821-0.06089 0.13982-0.12176 0.27966-0.18261 0.41949 0.07591-0.08951 0.15183-0.179 0.22777-0.2685 1.4643-1.7607 2.8247-3.1473 4.0761-4.1603 1.2604-1.0225 2.2536-1.5394 2.9736-1.5529 0.45253-0.0085 0.68287 0.21788 0.69123 0.67852 0.0087 0.48077-0.57088 1.9024-1.7294 4.2772-1.3868 2.8273-2.0702 4.4244-2.0626 4.7718 0.0058 0.26721 0.13228 0.39808 0.37939 0.39274 0.27462-0.0059 0.64654-0.16597 1.1164-0.47983 0.02251-0.0189 0.04503-0.03779 0.06755-0.05669z"/>
  <path d="m79.164 14.999c-0.05843 0.13887-0.11684 0.27775-0.17522 0.41664-0.65069 0.0076-1.3014 0.01574-1.9521 0.02454-0.03586 0.07881-0.07171 0.15762-0.10755 0.23643-0.16699 0.3637-0.63421 1.4625-1.3771 3.2542-0.30348 0.73652-0.72609 1.7396-1.2757 3.0336-0.64516 1.503-0.96261 2.4546-0.9558 2.8501 0.0068 0.39621 0.21149 0.59069 0.61382 0.58388 0.48479-0.0082 1.1427-0.30473 1.9761-0.8886 0.07497 0.11867 0.14992 0.23735 0.22483 0.35603-0.54264 0.43193-1.1633 0.80096-1.8623 1.1075-0.69895 0.30654-1.2764 0.46428-1.7333 0.47262-0.68522 0.01251-1.0332-0.25246-1.0435-0.79614-0.0073-0.38601 0.35586-1.4826 1.094-3.2831 0.45745-1.1004 0.91631-2.2005 1.3766-3.3002 0.77502-1.878 1.2148-2.9463 1.344-3.2837 0.04452-0.10665 0.08906-0.2133 0.13361-0.31994-0.60456 0.0091-1.2091 0.01872-1.8137 0.02885 0.06229-0.13928 0.1246-0.27856 0.18694-0.41783 0.06002-9.94e-4 0.12004-2e-3 0.18005-3e-3 0.79408-0.01302 1.3231-0.14531 1.5872-0.39805 0.2735-0.25298 0.63704-0.95843 1.0932-2.1166 0.13898 0.0073 0.23156 0.01067 0.27786 0.01004 0.44426-6e-3 0.88316-0.0669 1.3169-0.18276-0.09872 0.2689-0.27343 0.70773-0.52469 1.3196-0.13442 0.33343-0.26871 0.66689-0.40286 1.0004-0.04478 0.10656-0.08954 0.21312-0.13429 0.31968 0.65096-0.0087 1.3019-0.01675 1.9529-0.02419z"/>
  <path d="m86.376 24.325c0.08274 0.11939 0.16546 0.23878 0.24813 0.35819-0.95653 0.73155-2.2631 1.3093-3.9204 1.7377 0.03814-0.92923 0.56798-2.5399 1.5984-4.8205-1.174 1.4077-2.3811 2.5786-3.6239 3.5127-1.2337 0.93413-2.213 1.4072-2.9436 1.4169-0.63892 0.0085-0.96443-0.39666-0.97588-1.2167-0.01941-1.3907 0.57662-2.9023 1.7964-4.5296 1.2197-1.6366 2.7657-2.9847 4.6382-4.0396 2.1109-1.204 4.2248-1.8066 6.3298-1.8077 0.29547-1.57e-4 0.44317 0.11041 0.44319 0.33143 1.5e-5 0.18428-0.13843 0.53407-0.41474 1.0501-0.6269-0.11018-1.2356-0.16446-1.8257-0.16296-2.8129 0.0072-5.2287 1.1176-7.2285 3.3215-1.4727 1.6182-2.1941 3.2176-2.1746 4.793 0.0091 0.73707 0.28349 1.102 0.82253 1.0956 0.4571-0.0054 1.11-0.40911 1.9623-1.2099 0.85213-0.80989 1.6137-1.7422 2.2848-2.7973 0.92502-1.4623 1.5558-2.9764 1.8886-4.5441 0.39748 0.23743 0.59745 0.67871 0.60039 1.3235 0.0041 0.89372-0.4422 1.9222-1.3342 3.0884 0.4401-0.03957 0.98496-0.17158 1.6355-0.39551-0.03637 0.07845-0.07272 0.15691-0.10907 0.23537-0.86226 1.9646-1.2892 3.1171-1.2873 3.4472 0.0015 0.26714 0.12562 0.39071 0.37216 0.37089 0.2284-0.01972 0.6337-0.20617 1.2173-0.55874z"/>
  <path d="m101.29 24.429c0.0714 0.12064 0.1427 0.24129 0.21399 0.36194-0.97605 0.68661-2.1302 1.2437-3.4633 1.6735 0.16428-2.0021 1.1241-4.7913 2.9065-8.3378 0.13701-0.28367 0.27415-0.5673 0.41144-0.85089 0.0755-0.1371 0.11388-0.25166 0.11512-0.34373 3e-3 -0.22093-0.0922-0.33273-0.28567-0.33528-0.39611-0.0052-1.1877 0.57362-2.3673 1.7401-0.85452 0.83841-1.6628 1.9133-2.4235 3.2246-0.7516 1.3114-1.3628 2.68-1.8351 4.105-0.53849 0.13545-1.1825 0.39066-1.9306 0.76623 0.05049-0.12879 0.101-0.25758 0.15154-0.38636 0.27556-0.67608 0.55174-1.352 0.82857-2.0278 0.60906-1.4987 1.1663-2.9784 1.671-4.4396 0.50489-1.4619 0.75996-2.3471 0.76214-2.6609 0.0019-0.26701-0.12158-0.40143-0.3704-0.40304-0.31329-2e-3 -0.83659 0.36761-1.5671 1.1101-0.73048 0.73335-1.409 1.5783-2.0352 2.5348-1.0868 1.6738-2.0255 3.5294-2.8174 5.5658-0.11854 0.03698-0.18696 0.06012-0.20518 0.06934-0.24163 0.08784-0.4832 0.17578-0.72471 0.26382-0.29165 0.10197-0.59231 0.21792-0.90194 0.34787 0.2193-0.47444 0.64133-1.481 1.2809-3.0426 0.35544-0.86638 0.71188-1.7325 1.0694-2.5984 0.80715-1.9726 1.2278-3.1985 1.2561-3.6881 0.01879-0.3315-0.11459-0.49748-0.40031-0.49767-0.18428-1.21e-4 -0.46086 0.08263-0.82932 0.24851-0.05532-0.14734-0.11066-0.29468-0.16603-0.44202 0.80232-0.31371 1.8341-0.86071 3.102-1.6398 0.10177-0.06415 0.20356-0.12828 0.30538-0.19239 0.02699 0.21189 0.04021 0.39153 0.0397 0.53886-0.0027 0.78445-0.48867 2.3355-1.4484 4.6653 2.5584-3.265 4.5652-4.8848 5.9777-4.8723 0.41552 0.0037 0.62104 0.22675 0.61682 0.66864-0.0063 0.66474-0.48685 2.1295-1.4322 4.4074 1.0662-1.3822 2.2231-2.5681 3.47-3.5567 1.2559-0.98842 2.2201-1.4759 2.8844-1.4654 0.38775 0.0061 0.57835 0.20267 0.57202 0.58923-4e-3 0.26792-0.36964 1.1391-1.0912 2.6208-1.7343 3.5872-2.5917 5.6892-2.5986 6.2633-3e-3 0.24858 0.11414 0.3742 0.35119 0.37707 0.17331 0.0021 0.4756-0.11852 0.90769-0.36142z"/>
  <path d="m108.73 14.827-3e-3 0.15184c-0.0198 0.86744-0.6321 2.5608-1.8227 5.098-0.35516 0.76611-0.7093 1.5325-1.0624 2.2991-0.56297 1.2315-0.85469 1.9874-0.87788 2.2625-0.0143 0.28519 0.1382 0.42135 0.45732 0.40886 0.18243-0.0058 0.48472-0.09683 0.90758-0.27263 0.0566 0.13462 0.11308 0.26925 0.16958 0.40388-1.4447 0.66213-2.5922 1.1349-3.4528 1.4166 0.0591-0.8646 0.20821-1.6586 0.44808-2.3822 0.24843-0.73049 0.77628-1.9415 1.5851-3.6189 1.0302-2.1563 1.5628-3.4112 1.5888-3.7813 0.0242-0.28491-0.0927-0.43004-0.35065-0.43514-0.11976-0.0024-0.27704 0.02678-0.47172 0.0875-0.19477 0.06533-0.3895 0.13073-0.58417 0.1962-0.037 0.0085-0.12515 0.03914-0.26423 0.09186-0.0434-0.1481-0.0868-0.29619-0.13025-0.44428 0.0973-0.03048 0.19466-0.06095 0.29201-0.0914 1.0298-0.35872 2.0802-0.761 3.1521-1.2066 0.13988-0.06132 0.27979-0.1226 0.41974-0.18384zm0.88781-3.5147c0.42675 0.01028 0.63473 0.22737 0.62423 0.6506-6e-3 0.23925-0.10861 0.45304-0.30777 0.64151-0.1899 0.1887-0.40508 0.28017-0.64572 0.27448-0.43492-0.01029-0.64771-0.22676-0.6381-0.65012 5e-3 -0.23926 0.10298-0.45342 0.29287-0.64237 0.19916-0.18873 0.42406-0.28012 0.67449-0.27409z"/>
  <path d="m117.14 24.875c0.0684 0.12671 0.13685 0.25342 0.20522 0.38015-1.1192 0.75259-2.4264 1.2617-3.9244 1.5305 0.23521-1.5085 1.1856-3.7951 2.8729-6.8294 0.31696-0.56032 0.63465-1.1204 0.95306-1.6803 0.32371-0.57823 0.48896-0.9496 0.49484-1.1153 9e-3 -0.24832-0.088-0.37611-0.29058-0.38321-0.28513-0.01-0.84026 0.29298-1.6611 0.91066-0.81179 0.61806-1.6063 1.3393-2.383 2.1636-1.6102 1.7025-2.9665 3.7666-4.0711 6.1896-0.42956 0.09098-1.0399 0.29787-1.8286 0.62161 0.87346-1.7124 1.7616-3.6344 2.667-5.7664 0.91559-2.1428 1.383-3.4057 1.3937-3.8034 9e-3 -0.33121-0.12018-0.50046-0.3873-0.50747-0.13803-0.0036-0.4394 0.05753-0.90313 0.18402-0.0371 0.0083-0.0881 0.02082-0.15295 0.03762-0.024-0.14791-0.048-0.29582-0.072-0.44373 1.2989-0.3362 2.4762-0.71802 3.5324-1.1472 0.0608-0.02583 0.12158-0.05165 0.18238-0.07747 0.0149 0.12014 0.0216 0.20322 0.0202 0.24922-0.0245 0.82164-0.68156 2.5408-1.9554 5.1788-0.0679 0.13627-0.13571 0.27254-0.20352 0.40883 0.0802-0.08531 0.16037-0.17061 0.24059-0.25589 1.5486-1.6794 2.9789-2.9894 4.2818-3.9314 1.3125-0.95089 2.333-1.411 3.0521-1.384 0.4521 0.01696 0.66912 0.25573 0.65142 0.71548-0.0185 0.48094-0.67737 1.8634-1.9626 4.168-1.5362 2.7408-2.3005 4.2997-2.3118 4.645-9e-3 0.26677 0.10971 0.40411 0.35522 0.41224 0.27287 9e-3 0.65062-0.13023 1.1344-0.4173 0.0234-0.0176 0.0468-0.0352 0.0702-0.05281z"/>
  <path d="m127.95 25.23c0.0756 0.12368 0.15117 0.24738 0.22668 0.37109-0.99105 0.67674-2.3198 1.1809-3.9878 1.5194 0.0875-0.92421 0.6996-2.5039 1.8484-4.7223-1.2446 1.3404-2.5068 2.4437-3.7903 3.3102-1.2745 0.86694-2.2703 1.2884-2.9962 1.2607-0.63453-0.02417-0.93724-0.44474-0.90712-1.2634 0.0511-1.3881 0.7195-2.8664 2.0175-4.4267 1.2984-1.5697 2.9099-2.8337 4.8343-3.7852 2.1702-1.0874 4.3146-1.5715 6.4161-1.4528 0.29498 0.01665 0.43611 0.13541 0.4235 0.3559-0.0105 0.18388-0.16869 0.52485-0.47373 1.0239-0.61914-0.1456-1.2234-0.23411-1.8122-0.26567-2.807-0.15047-5.2784 0.82761-7.3859 2.921-1.5518 1.5369-2.3508 3.0957-2.4123 4.6682-0.0288 0.73576 0.22501 1.1138 0.76062 1.1354 0.45433 0.01828 1.1234-0.35042 2.0127-1.1042 0.88949-0.76287 1.6966-1.6521 2.4212-2.6684 0.99925-1.4088 1.7106-2.8846 2.1285-4.4302 0.38339 0.25865 0.55844 0.70991 0.52582 1.3533-0.0452 0.8919-0.54673 1.8929-1.498 3.0077 0.44016-0.01548 0.98954-0.11732 1.6494-0.30472-0.0405 0.07625-0.0811 0.1525-0.12157 0.22876-0.96632 1.9116-1.4532 3.0393-1.4693 3.3681-0.013 0.26658 0.10348 0.3966 0.34946 0.39036 0.22801-0.0071 0.64072-0.17088 1.2402-0.49025z"/>
  <path d="m137.5 16.401c-0.069 0.1338-0.13795 0.26761-0.20686 0.40143-0.64909-0.0427-1.2982-0.08435-1.9474-0.12497-0.0417 0.07577-0.0834 0.15155-0.12511 0.22732-0.19152 0.34516-0.74542 1.4129-1.6159 3.1374-0.35896 0.71502-0.84962 1.6742-1.4928 2.9265-0.75105 1.4488-1.135 2.3744-1.1571 2.7684-0.0222 0.39514 0.16618 0.6038 0.56493 0.62667 0.48059 0.02757 1.1535-0.21906 2.0228-0.73803 0.0654 0.12382 0.13069 0.24766 0.19596 0.3715-0.56981 0.38937-1.2117 0.71053-1.9259 0.96415-0.7143 0.25364-1.2969 0.36854-1.7496 0.34362-0.67868-0.03737-1.004-0.32619-0.97506-0.86852 0.0205-0.3843 0.45865-1.4519 1.3216-3.1908 0.53387-1.0627 1.0702-2.1247 1.609-3.1861 0.9144-1.8239 1.4226-2.8337 1.5816-3.1707 0.0523-0.1029 0.1047-0.20579 0.15709-0.30867-0.60322-0.03617-1.2065-0.07145-1.8098-0.10586 0.0723-0.13414 0.14471-0.26827 0.21713-0.40239 0.0599 0.0034 0.11981 0.0069 0.17972 0.01033 0.79262 0.04568 1.3298-0.04646 1.6122-0.2784 0.29176-0.23153 0.7071-0.90674 1.2503-2.0259 0.13826 0.0178 0.23041 0.02816 0.2767 0.03105 0.44409 0.02773 0.88697 5.38e-4 1.329-0.08158-0.11939 0.26058-0.32722 0.68359-0.62484 1.2741-0.1596 0.32182-0.31898 0.64371-0.47813 0.96565-0.0528 0.10272-0.1055 0.20545-0.15821 0.30818 0.64962 0.04083 1.2992 0.08269 1.9487 0.12561z"/>
  <path d="m145.42 18.28c-0.48312-0.08478-0.88584-0.13945-1.2074-0.16446-2.4177-0.18804-4.3386 0.61002-5.7458 2.377-0.55342 0.70031-1.0346 1.5167-1.444 2.4489-0.40867 0.92284-0.63286 1.7065-0.67474 2.3491-0.0293 0.45002 0.0735 0.83027 0.30778 1.1409 0.24398 0.30204 0.56485 0.46636 0.96307 0.49333 0.9413 0.06375 2.0332-0.6303 3.2893-2.0797 1.2562-1.4496 1.9391-2.8085 2.036-4.085 0.0216-0.28455-0.038-0.52911-0.17917-0.73365-0.13127-0.21301-0.30239-0.32744-0.51315-0.34317-0.73305-0.05471-1.4888 0.62874-2.2595 2.0504-0.0326-0.18688-0.0441-0.34916-0.0344-0.48689 0.0403-0.56906 0.43442-1.1414 1.1855-1.7144 0.75109-0.57297 1.445-0.83506 2.0783-0.78682 0.42223 0.03216 0.7668 0.23427 1.033 0.60593 0.26694 0.36252 0.38043 0.79166 0.34138 1.2873-0.13091 1.6611-1.3265 3.3369-3.5578 5.0465-1.914 1.4839-3.451 2.191-4.6359 2.1131-0.51516-0.03388-0.93234-0.24971-1.2524-0.64816-0.31094-0.39781-0.44916-0.88135-0.41356-1.4508 0.0786-1.2581 0.59165-2.5455 1.5474-3.8577 0.96554-1.3208 2.1986-2.4291 3.7009-3.3197 0.82778-0.486 1.7198-0.86903 2.6751-1.1482 0.96449-0.27846 1.775-0.3909 2.4286-0.33919 0.40518 0.03206 0.59324 0.22739 0.56453 0.58524-0.0111 0.13769-0.0889 0.35764-0.23326 0.66014h2e-5z"/>
  <path d="m154.31 17.827c-0.21002 0.44714-0.41962 0.89439-0.62879 1.3417-0.3417-0.10649-0.6458-0.17206-0.91198-0.19689-1.0647-0.09934-2.2795 0.61373-3.6283 2.1414-0.63464 0.73037-1.1951 1.5372-1.682 2.4201-0.47729 0.8826-1.0951 2.2419-1.8445 4.073-0.0624 0.15192-0.12481 0.30384-0.18715 0.45577-0.59722 0.08047-1.1693 0.19164-1.716 0.33327 0.0604-0.13376 0.12085-0.26751 0.18133-0.40125 0.48168-1.0424 0.9656-2.0842 1.4518-3.1255 1.3877-3.0148 2.1146-4.7807 2.1613-5.3369 0.0238-0.2844-0.088-0.43706-0.3358-0.45766-0.13748-0.01144-0.45543 0.08685-0.95235 0.2957-0.048-0.14709-0.0961-0.29417-0.14416-0.44125 1.3353-0.51967 2.5473-1.1144 3.6359-1.7865 0.0224 0.16833 0.0276 0.3213 0.0155 0.4589-0.0619 0.7075-0.48267 1.856-1.2556 3.4541 0.12072-0.11901 0.24152-0.23798 0.36239-0.35692 2.3344-2.1641 3.968-3.195 4.8607-3.1105 0.19325 0.01829 0.39928 0.09804 0.61783 0.23928l-3e-5 -3e-6z"/>
 </g>
 <path d="m12.075 34.969c22.566-3.9659 139.74-1.8954 117.74 0.8805-14.916 1.8814-24.478 1.4964-38.487 2.9604-14.596 1.5253 23.479 1.2821 23.479 1.2821" fill="none" stroke="#000" stroke-linecap="round" stroke-linejoin="round" stroke-width="1px"/>
</svg>
